<svg xmlns="http://www.w3.org/2000/svg" viewBox="0 0 640 640"><!--! Font Awesome Pro 7.1.0 by @fontawesome - https://fontawesome.com License - https://fontawesome.com/license (Commercial License) Copyright 2025 Fonticons, Inc. --><path fill="currentColor" d="M288 224C261.5 224 240 202.5 240 176C240 167.2 246.5 152 260.5 132.9C269.7 120.4 280 109 288 100.8C296 109.1 306.4 120.4 315.5 132.9C329.5 151.9 336 167.2 336 176C336 202.5 314.5 224 288 224zM208 176C208 220.2 243.8 256 288 256C332.2 256 368 220.2 368 176C368 136.4 318.9 85.9 301.8 69.4C298.1 65.8 293.1 64 288 64C282.9 64 277.9 65.9 274.2 69.4C257.1 85.9 208 136.4 208 176zM144 544C135.2 544 128 551.2 128 560C128 568.8 135.2 576 144 576L512 576C547.3 576 576 547.3 576 512C576 476.7 547.3 448 512 448C476.7 448 448 476.7 448 512C448 523.7 451.1 534.6 456.6 544L384 544L384 352C384 325.5 362.5 304 336 304L240 304C213.5 304 192 325.5 192 352L192 544L144 544zM224 544L224 352C224 343.2 231.2 336 240 336L336 336C344.8 336 352 343.2 352 352L352 544L224 544zM480 512C480 494.3 494.3 480 512 480C529.7 480 544 494.3 544 512C544 529.7 529.7 544 512 544C494.3 544 480 529.7 480 512z"/></svg>